# xmcd
#
# Track frame offsets: 
#        150
#        16846
#        36205
#        47364
#        74416
#        93088
#        115877
#        129174
#        148189
#        176901
#        194141
#        219883
#        235628
#        247685
#        268154
#        282067
#        294581
#        307287
#        319929
#        336514
#
# Disc length: 4670 seconds
#
# Revision: 1
# Processed by: cddbd v1.5.2PL0 Copyright (c) Steve Scherf et al.
# Submitted via: ExactAudioCopy v0.99pb4
#
DISCID=2d123c14
DTITLE=Acker Bilk - The Fabulous Mr. Acker Bilk
DYEAR=2005
DGENRE=Jazz
TTITLE0=Dardanella
TTITLE1=Sweet Georgia Brown
TTITLE2=Gladiolus Rag
TTITLE3=Nature Boy - ACKER WITH STRINGS
TTITLE4=South Rampart Street Parade
TTITLE5=Slab's Blues - ACKER WITH TERRY LIGHTFOOT AND SANDY BROWN
TTITLE6=Jump In the Line
TTITLE7=Misty - ACKER WITH STRINGS
TTITLE8=Times A-Wastin'
TTITLE9=Boodle-Am-Shake - ACKER WITH TERRY LIGHTFOOT and SANDY BROWN
TTITLE10=Mama Told Me So
TTITLE11=Delia's Gone
TTITLE12=What A Wonderful World - ACKER WITH STRINGS
TTITLE13=Someday You'll Be Sorry
TTITLE14=Franklin Street Blues
TTITLE15=My Journey To The Skies - ACKER WITH TERRY LIGHTFOOT, SANDY B
TTITLE15=ROWN AND ARCHIE SEMPLE
TTITLE16=Burgundy Street Blues
TTITLE17=Going Home - ACKER WITH STRINGS
TTITLE18=Liza (Open Up De Door)
TTITLE19=Travellin' Blues
EXTD=YEAR: 2005
EXTT0=
EXTT1=
EXTT2=
EXTT3=
EXTT4=
EXTT5=
EXTT6=
EXTT7=
EXTT8=
EXTT9=
EXTT10=
EXTT11=
EXTT12=
EXTT13=
EXTT14=
EXTT15=
EXTT16=
EXTT17=
EXTT18=
EXTT19=
PLAYORDER=
